<?xml version="1.0" encoding="UTF-8" standalone="no"?>
<svg width="258px" height="507px" viewBox="0 0 258 507" version="1.1" xmlns="http://www.w3.org/2000/svg" xmlns:xlink="http://www.w3.org/1999/xlink" xmlns:sketch="http://www.bohemiancoding.com/sketch/ns">
    <!-- Generator: Sketch 3.0.3 (7891) - http://www.bohemiancoding.com/sketch -->
    <title>front_8</title>
    <desc>Created with Sketch.</desc>
    <defs></defs>
    <g id="start" stroke="none" stroke-width="1" fill="none" fill-rule="evenodd" sketch:type="MSPage">
        <g id="Landscape" sketch:type="MSArtboardGroup" transform="translate(-123.000000, -142.000000)" stroke="#FF7233" stroke-width="2">
            <path d="M249.837176,143.168 C265.831923,143.168 281.47361,144.814493 296.762706,148.107529 C312.051802,151.400565 325.458962,157.398506 336.984588,166.101529 C348.510214,174.804553 357.801141,186.56522 364.857647,201.383882 C371.914153,216.202545 375.442353,234.902005 375.442353,257.482824 C375.442353,273.007136 373.207826,286.884723 368.738706,299.116 C364.269585,311.347277 358.506859,322.402304 351.450353,332.281412 C344.393847,342.16052 336.278987,351.098627 327.105529,359.096 C317.932072,367.093373 308.641145,374.384987 299.232471,380.971059 C305.818543,386.14583 312.404516,391.43813 318.990588,396.848118 C325.57666,402.258105 331.456994,407.785619 336.631765,413.430824 C350.274343,427.073402 360.623729,441.774235 367.680235,457.533765 C374.736741,473.293294 378.264941,491.757541 378.264941,512.927059 C378.264941,531.273974 375.795201,548.679761 370.855647,565.144941 C365.916093,581.610122 358.27166,595.840528 347.922118,607.836588 C337.572576,619.832648 324.753449,629.358788 309.464353,636.415294 C294.175257,643.4718 276.181437,647 255.482353,647 C231.960667,647 211.967533,643.4718 195.502353,636.415294 C179.037173,629.358788 165.512406,619.715042 154.927647,607.483765 C144.342888,595.252488 136.580848,580.904474 131.641294,564.439294 C126.70174,547.974114 124.232,530.333114 124.232,511.515765 C124.232,480.937573 131.99404,454.123253 147.518353,431.072 C163.042666,408.020747 182.094946,389.674107 204.675765,376.031529 C195.737524,369.915891 187.269844,363.800344 179.272471,357.684706 C171.275097,351.569067 164.453911,345.218307 158.808706,338.632235 C149.400031,329.223561 142.108418,318.050927 136.933647,305.114 C131.758876,292.177073 129.171529,278.652306 129.171529,264.539294 C129.171529,244.310644 132.464516,226.552037 139.050588,211.262941 C145.63666,195.973845 154.339554,183.272325 165.159529,173.158 C175.979505,163.043675 188.681025,155.516848 203.264471,150.577294 C217.847916,145.63774 233.371996,143.168 249.837176,143.168 Z M290.764706,440.245412 C285.119501,434.600207 278.886348,429.072694 272.065059,423.662706 C265.24377,418.252718 258.069763,412.960418 250.542824,407.785647 C230.314173,418.135189 213.1436,431.659956 199.030588,448.360353 C184.917576,465.06075 177.861176,485.17149 177.861176,508.693176 C177.861176,534.096598 184.44715,554.324944 197.619294,569.378824 C210.791438,584.432703 228.902865,591.959529 251.954118,591.959529 C273.594069,591.959529 290.764642,584.903129 303.466353,570.790118 C316.168064,556.677106 322.518824,536.919186 322.518824,511.515765 C322.518824,492.227982 319.343444,477.409542 312.992588,467.06 C306.641733,456.710458 299.232513,447.772351 290.764706,440.245412 Z M257.599294,197.502824 C238.311511,197.502824 221.728971,202.55991 207.851176,212.674235 C193.973382,222.78856 187.034588,238.900674 187.034588,261.011059 C187.034588,284.532745 196.207908,303.585025 214.554824,318.168471 C219.259161,323.343242 225.257101,328.635542 232.548824,334.045529 C239.840546,339.455517 247.955406,345.218244 256.893647,351.333882 C274.770129,339.573039 290.176602,326.283486 303.113529,311.464824 C316.050457,296.646161 322.518824,279.357981 322.518824,259.599765 C322.518824,248.779789 320.637117,239.371256 316.873647,231.373882 C313.110177,223.376509 308.288304,216.908142 302.407882,211.968588 C296.527461,207.029034 289.706274,203.383227 281.944118,201.031059 C274.181961,198.67889 266.067101,197.502824 257.599294,197.502824 Z" id="front_8" sketch:type="MSShapeGroup"></path>
        </g>
    </g>
</svg>